Coordinates
version=1
nRows=10
nColumns=22
inDegrees=yes

Units are S.I. units (second, meters, Newtons, ...)
If the header above contains a line with 'inDegrees', this indicates whether rotational values are in degrees (yes) or radians (no).

endheader
time	pelvis_tilt	pelvis_list	pelvis_rotation	pelvis_tx	pelvis_ty	pelvis_tz	hip_flexion_r	hip_adduction_r	hip_rotation_r	knee_angle_r	ankle_angle_r	subtalar_angle_r	hip_flexion_l	hip_adduction_l	hip_rotation_l	knee_angle_l	ankle_angle_l	subtalar_angle_l	lumbar_extension	lumbar_bending	lumbar_rotation
      0.01000000	     -3.35441077	     -2.79088926	      1.60304615	     -1.19322230	      0.95639868	      0.38316556	      9.18268736	      3.20512546	     -8.01867230	    -18.66160687	     12.93057730	     -1.23787090	     10.92528337	     -2.98970872	     -1.93748902	    -21.73419657	     11.95042219	     -5.93072607	     -3.95778403	      1.09739008	     -3.25912395
      0.02000000	     -3.35968827	     -2.77315705	      1.54117276	     -1.19301000	      0.95638372	      0.38312095	      9.19605345	      3.18358737	     -7.97090114	    -18.69635112	     12.94895377	     -1.22773321	     10.89745607	     -2.97399928	     -2.00846774	    -21.71730382	     11.95130561	     -5.98546548	     -3.93320435	      1.07563594	     -3.25015922
      0.03000000	     -3.36380435	     -2.77682492	      1.49152362	     -1.19276067	      0.95636971	      0.38303888	      9.20750330	      3.18185993	     -7.94078536	    -18.73295002	     12.95236481	     -1.22460086	     10.86663538	     -2.97557197	     -2.04546272	    -21.69806483	     11.95653503	     -5.99622499	     -3.90671770	      1.08003037	     -3.27669087
      0.04000000	     -3.37814836	     -2.74873423	      1.37402280	     -1.19249514	      0.95633623	      0.38303383	      9.24470693	      3.15586192	     -7.82601157	    -18.79417469	     12.97555730	     -1.21194255	     10.83341676	     -2.95881003	     -2.18497980	    -21.67717421	     11.97896771	     -6.02917523	     -3.87372046	      1.04111523	     -3.21190605
      0.05000000	     -3.38968522	     -2.73265332	      1.27510287	     -1.19221091	      0.95630528	      0.38298448	      9.27888384	      3.13849197	     -7.73350779	    -18.85865940	     12.99376435	     -1.20158899	     10.79647569	     -2.94759743	     -2.28895475	    -21.65132138	     11.98686656	     -6.04798019	     -3.84374726	      1.02017778	     -3.19053003
      0.06000000	     -3.39985059	     -2.71360812	      1.17275794	     -1.19192729	      0.95627246	      0.38292228	      9.31752298	      3.11646149	     -7.64056553	    -18.93298305	     13.01301102	     -1.19262564	     10.75702721	     -2.93272816	     -2.39785666	    -21.62582271	     12.00503153	     -6.06532029	     -3.81943321	      0.99688755	     -3.16525862
      0.07000000	     -3.40919095	     -2.69389464	      1.06999040	     -1.19165136	      0.95623736	      0.38285983	      9.35875764	      3.09392400	     -7.54465717	    -19.01279904	     13.03351305	     -1.18520284	     10.71727130	     -2.91704172	     -2.50550006	    -21.60056177	     12.02076864	     -6.07966809	     -3.80118849	      0.97267720	     -3.14111417
      0.08000000	     -3.41664743	     -2.67345826	      0.96905002	     -1.19139267	      0.95620250	      0.38279209	      9.40269821	      3.07011178	     -7.44957876	    -19.09857927	     13.05456476	     -1.17935478	     10.67792580	     -2.89988675	     -2.61097278	    -21.57771636	     12.03866739	     -6.09352316	     -3.79046716	      0.94786980	     -3.11725113
      0.09000000	     -3.42257535	     -2.65359356	      0.87337058	     -1.19114981	      0.95616539	      0.38271987	      9.44624082	      3.04650745	     -7.35708324	    -19.18569544	     13.07653866	     -1.17486773	     10.64153641	     -2.88230287	     -2.70976472	    -21.55898822	     12.05452520	     -6.10632041	     -3.78671757	      0.92476743	     -3.09569115
      0.10000000	     -3.42626154	     -2.63470693	      0.78412529	     -1.19092769	      0.95612880	      0.38264416	      9.48930377	      3.02379330	     -7.27037625	    -19.27378635	     13.09838776	     -1.17156544	     10.60834620	     -2.86451195	     -2.80049815	    -21.54621447	     12.07113797	     -6.11886724	     -3.79079867	      0.90316202	     -3.07768271
